<svg width="400" height="56" viewBox="0 0 400 56" fill="none" xmlns="http://www.w3.org/2000/svg">
<path d="M147.594 30V9H168.594V12H153.594V18H165.594V21H153.594V27H168.594V30H147.594ZM174.594 30V27H171.594V18H174.594V15H186.594V9H192.594V30H174.594ZM177.594 27H186.594V18H177.594V27ZM198.594 30V27H195.594V15H201.594V27H210.594V15H216.594V30H198.594ZM222.594 30V27H219.594V24H222.594V21H234.594V18H222.594V15H237.594V18H240.594V30H222.594ZM225.594 27H234.594V24H225.594V27ZM252.594 18H255.594V21H252.594V30H246.594V15H252.594V18ZM264.594 15V18H255.594V15H264.594ZM270.594 30V27H267.594V18H270.594V15H282.594V9H288.594V30H270.594ZM273.594 27H282.594V18H273.594V27ZM294.594 30V27H291.594V18H294.594V15H309.594V18H312.594V27H309.594V30H294.594ZM297.594 27H306.594V18H297.594V27ZM153.594 46V43H150.594V40H147.594V31H150.594V28H153.594V25H168.594V28H156.594V31H153.594V40H156.594V43H162.594V37H159.594V34H168.594V46H153.594ZM174.594 46V43H171.594V40H174.594V37H186.594V34H174.594V31H189.594V34H192.594V46H174.594ZM177.594 43H186.594V40H177.594V43ZM195.594 46V31H213.594V34H216.594V46H210.594V34H207.594V46H201.594V34H198.594V46H195.594ZM222.594 46V43H219.594V34H222.594V31H237.594V34H240.594V40H225.594V43H237.594V46H222.594ZM225.594 37H234.594V34H225.594V37ZM243.594 46V43H258.594V40H246.594V37H243.594V34H246.594V31H261.594V34H249.594V37H261.594V40H264.594V43H261.594V46H243.594Z" fill="#E5E5E5"/>
</svg>
